DataType=double
version=3
OpenSimVersion=4.5-2023-11-26-efcdfd3eb
endheader
time	EMG01_right_gast_med	EMG02_right_glut_max	EMG03_left_gast_med	EMG04_left_glut_max	EMG05_right_glut_med	EMG06_right_bic_fem	EMG07_right_rect_fem	EMG08_right_vast_lat	EMG09_right_vast_med	EMG10_right_tens_fasc_lat	EMG11_left_glut_med	EMG12_left_bic_fem	EMG13_left_rect_fem	EMG14_left_vast_lat	EMG15_left_vast_med	EMG16_left_tens_fasc_lat
0	-7.92289774045134	2.47657316566172	0.6531849961579766	4.624127402389535	7.923873613037581	0.5497544926864417	-0.02740861268332327	-0.0235625103277254	1.728800734889447	1.496901778971405	0.1483798914413501	0.02216761195329769	0.3146361450827022	0.6521029000615206	2.906909295421717	2.353208064968781
0.01	-6.392564177492333	4.822766238361029	0.9619675762914917	11.43877262211346	12.79387716517356	2.581284664661553	0.5293298892819687	0.5812253874580212	5.794260514134026	3.159562875425209	0.4141698098724662	0.1185558384779816	1.090693367050733	1.326021457462116	4.213493980199824	4.254694885439489
0.02	-4.698985729707613	7.168678724591005	1.261333675006785	18.02762677534052	17.61991721449588	4.615172010719268	1.079368508112759	1.182593421945824	9.739144409647563	4.756745774881806	0.67665243480364	0.2052509646477978	1.859278777187479	1.964537462329676	5.462903986126405	6.177480860800943
0.03	-2.832933954249958	9.491407098732825	1.547922523036809	24.35575116792247	22.34301289233372	6.636529227554627	1.617906829273523	1.774867085657598	13.54170342817589	6.274923300300866	0.9339823594283108	0.2828319265186262	2.613532930604299	2.56328336353369	6.640971739481079	8.108224096749527
0.04	-0.7852973627806021	11.76810626708082	1.81865054049584	30.39023080858266	26.90598472975715	8.630698950732416	2.140442440075839	2.352632192947386	17.18153031373642	7.701568408260139	1.184472961114486	0.3521719626530733	3.346862527289678	3.118459690022253	7.734454320196206	10.03340265406969
0.05	1.452786247840001	13.97633342468867	2.07078725928552	36.10049588459574	31.25460840725732	10.58348884052081	2.642862378173618	2.910839340051889	20.639814610955	9.025388287075275	1.426636993350608	0.4144482394642534	4.053055002344879	3.626913424793949	8.731300184234039	11.93950442134272
0.06	3.889770765656186	16.09437926484717	2.302025508534147	41.45863670100553	35.33864930597395	12.48138235932228	3.121522534466193	3.444894507368417	23.8995673042796	10.23653809580647	1.659223139164346	0.4711473426659862	4.726387241882528	4.086208980262979	9.620901109858476	13.81322060009592
0.07000000000000001	6.533517009559024	18.10158073592114	2.510544211615108	46.4397101376841	39.11275792604307	14.31172053129075	3.573312970651946	3.950734222326566	26.94581035543815	11.32681012689743	1.881247498670981	0.524066338445529	5.361726587010998	4.494690455922836	10.39432414681256	15.64164056937495
0.08	9.391084621987217	19.97861033750698	2.695062351956621	51.02203416822973	42.53721806401845	16.06285249225217	3.995707782846685	4.424884515236347	29.76572832472312	12.28979518988596	2.092019130306033	0.5753091711505448	5.954622489309119	4.851533997105239	11.04451852778174	17.4124462315327
0.09	12.46850401370778	21.70773764166017	2.854882894201317	55.1874652043191	45.57854851028326	17.72425458455922	4.386798853113434	4.864503421272382	32.34878083165132	13.12101380790194	2.29115899251266	0.6272781930836753	6.501387330250938	5.156789159922318	11.56649282007137	19.1141041384399
0.1	15.77053249906332	23.27305958486028	2.989925663421421	58.92165114494146	48.20996454797505	19.28661909603326	4.745313471665273	5.267407144884323	34.68677566381146	13.81801545394988	2.478611918148559	0.6826606303182048	6.999164964930224	5.411408209685963	11.95745815967289	20.73605368459507
0.11	19.30039932948576	24.6606971050119	3.100748360731286	62.21425136819472	50.41170802556606	20.74191461859333	5.070616255568882	5.632080282746425	36.77390322004467	14.38044452710781	2.654651535405886	0.7444097893639845	7.445985502783366	5.617262241384017	12.21693421123476	22.26888942670513
0.12	23.05954479780171	25.85895673020937	3.188555054431142	65.0591138780661	52.17125532069924	22.08342051595285	5.362696059211055	5.957670763731564	38.60673408135431	14.81007208105074	2.819878288372484	0.8157208141116682	7.840804822394915	5.777142938282359	12.34681539829941	23.70453518134207
0.13	27.04735896222329	26.85845664990566	3.255191698107286	67.4543995213167	53.48341208548727	23.30573826023149	5.622138767826113	6.243970456147178	40.18418270666488	15.110792629726	2.975210886896056	0.9000008230228744	8.183527526011574	5.89474875235339	12.35139586407666	25.03640700671761
0.14	31.26092588985656	27.65221755794507	3.303128532161091	69.40264358466838	54.35030281914582	24.40478256352961	5.850087057582966	6.491382715482628	41.50744102597318	15.28858586380964	3.121871601868871	1.000833299665758	8.475012574510927	5.974654400416557	12.23735262747968	26.25956163886986
0.15	35.69477964307628	28.23571910926433	3.335429582947556	70.91074634078186	54.78126244760435	25.37775526498973	6.048188442514236	6.700878484082096	42.57988570681209	15.35144384607585	3.261365818351996	1.121936672062667	8.717061636853506	6.02226289161276	12.01368750415144	27.37082669354385
0.16	40.34067833973467	28.60692322647971	3.355709782235388	71.9898864691564	54.79263658009582	26.22310465224976	6.21853322213196	6.873942891413957	43.4069623292572	15.30926511366797	3.395456216574828	1.267117098663839	8.91239105250617	6.043739839549099	11.69162937317972	28.36890909274652
0.17	45.18740230216795	28.76626581852004	3.368080411325924	72.65535468862738	54.40749717304967	26.94047226370085	6.363584224344915	7.012514578383248	43.99604928565746	15.17371796571599	3.52613193357367	1.440215593116458	9.064589018951404	6.04593050864994	11.28449910321937	29.25447850215109
0.18	50.22058169461014	28.7166187309901	3.37708363372667	72.92630917654493	53.65528079875253	27.53062850696395	6.486100418893799	7.118920082434485	44.35630436715788	14.95807589868803	3.655573097735345	1.64504976822034	9.178060011602993	6.036260778445155	10.80753991118902	30.03022273203886
0.19	55.42255872177852	28.46322393278338	3.387616891569801	72.82545901401514	52.57135719423235	27.99539804869744	6.589056551350691	7.19580553546955	44.4984975172182	14.6770285496157	3.786111221285004	1.885350643760052	9.257958492733167	6.022623843199955	10.27771622295881	30.70087208604338
0.2	60.77229000522681	28.01360213507887	3.404848000207296	72.37868604807343	51.19653597531301	28.33757613848525	6.675560968647553	7.246067706753077	44.43483369976767	14.34647160950201	3.920186061772351	2.164695139750485	9.310113758202027	6.013254920741172	9.713484358425138	31.27318994625895
0.21	66.24529596267729	27.3774382600944	3.434121942328858	71.61461804871907	49.57651925838192	28.56083771390032	6.748773793711091	7.272786155282967	44.17877006340567	13.98327907206164	4.060299699873846	2.486435096571741	9.340947407644897	6.016596512811551	9.134538649588269	31.75592772656042
0.22	71.81366490241417	26.5664463600692	3.480860610645218	70.56416650801363	47.76130749600525	28.66964185427202	6.811827531920727	7.279157987218995	43.74483149977338	13.60506103951438	4.208968706027459	2.853623940879559	9.357384482422797	6.041156851086439	8.561536908104832	32.15974353931776
0.23	77.44611935033394	25.59421672715846	3.550456990119189	69.26004161189211	45.8045652646141	28.66913446299077	6.867752033607332	7.26843645100042	43.1484281483752	13.22991022222852	4.368675363767852	3.268942395771289	9.366758863635757	6.095364118165282	8.015809440286521	32.49708516505127
0.24	83.10815091350329	24.47604805668426	3.648165455851129	67.73625579731072	43.76295313545078	28.56505181789321	6.919405510698182	7.243874331012512	42.40567743916475	12.87614020734092	4.541818967097035	3.734624829146758	9.376713106516256	6.187418934353063	7.519056030081826	32.78203891677693
0.25	88.76222813074506	23.22876754569355	3.778990009152658	66.02762622813137	41.69543110709078	28.3636269838351	6.96941305137571	7.208672799192561	41.53323223182144	12.56201844505692	4.730668203889683	4.252387911281871	9.395092529808441	6.325147529477663	7.093035415334415	33.03014655904192
0.26	94.36807943589052	21.87054165294875	3.947572400676063	64.16928521145681	39.66253850530368	28.07150024211412	7.020113816706187	7.165936055732693	40.54811577870201	12.30549672606573	4.937315587134823	4.823363240584028	9.42983311147561	6.515857990759689	6.759251702494343	33.25819267455955
0.27	99.88305074268102	20.42068001736584	4.158082171997518	62.19620589416579	37.72565496702951	27.69563379957979	7.073517824582973	7.118631784469524	39.46756352673733	12.12394179176102	5.16363483102618	5.448035532802067	9.488842632967577	6.766201948038288	6.538641915984853	33.48396528550796
0.28	105.2625348219117	18.89943485672493	4.414110665811453	60.14274891743961	35.94624706292803	27.24323025255674	7.131272910660369	7.069557237684441	38.30887099316782	12.03386867192671	5.411242011201179	6.126187868069231	9.579874665453302	7.082043995489097	6.451268550583688	33.72599357907553
0.29	110.4604682128517	17.32779799211528	4.718571030810952	58.04223466757465	34.38510501867889	26.7216538654329	7.19464211798805	7.02131068372825	37.08924622507969	12.05067937917779	5.681461282118677	6.856855359593809	9.710395509294694	7.468341077174253	6.516020664677747	34.00326810346491
